<svg width="199" height="92" viewBox="0 0 199 92" fill="none" xmlns="http://www.w3.org/2000/svg">
<path d="M1.5 46C1.5 21.4233 21.4233 1.5 46 1.5V0.5C20.871 0.5 0.5 20.871 0.5 46H1.5ZM46 90.5C21.4233 90.5 1.5 70.5767 1.5 46H0.5C0.5 71.129 20.871 91.5 46 91.5V90.5ZM65 90.5H46V91.5H65V90.5ZM66.5 90V79H65.5V90H66.5ZM67 78.5H132V77.5H67V78.5ZM132.5 79V90H133.5V79H132.5ZM153 90.5H134V91.5H153V90.5ZM197.5 46C197.5 70.5767 177.577 90.5 153 90.5V91.5C178.129 91.5 198.5 71.129 198.5 46H197.5ZM153 1.5C177.577 1.5 197.5 21.4233 197.5 46H198.5C198.5 20.871 178.129 0.5 153 0.5V1.5ZM46 1.5H153V0.5H46V1.5ZM132.5 90C132.5 90.8284 133.172 91.5 134 91.5V90.5C133.724 90.5 133.5 90.2761 133.5 90H132.5ZM132 78.5C132.276 78.5 132.5 78.7239 132.5 79H133.5C133.5 78.1716 132.828 77.5 132 77.5V78.5ZM66.5 79C66.5 78.7239 66.7239 78.5 67 78.5V77.5C66.1716 77.5 65.5 78.1716 65.5 79H66.5ZM65 91.5C65.8284 91.5 66.5 90.8284 66.5 90H65.5C65.5 90.2761 65.2761 90.5 65 90.5V91.5Z" fill="#7C7C7C"/>
</svg>
