<svg width="551" height="217" viewBox="0 0 551 217" fill="none" xmlns="http://www.w3.org/2000/svg">
<path d="M78.92 33.2251C78.92 33.2251 13.3031 83.7022 7.75619 80.6338C2.20931 77.5653 30.1224 50.7098 31.8681 56.2474C32.7277 59.0154 29.9852 85.6226 26.6065 112.615C26.3885 114.356 26.1688 116.124 25.9508 117.865C22.7405 143.059 19.1659 167.299 17.6829 171.353C14.4924 180.059 8.07463 182.281 8.07463 182.281C8.07463 182.281 1.10013 176.594 12.3981 172.079C23.696 167.563 28.4512 166.804 28.4512 166.804" stroke="white" stroke-width="2" stroke-miterlimit="10" stroke-linecap="round"/>
<path d="M26.7686 118.37C26.7686 118.37 25.7015 118.009 38.5005 111.648C51.2994 105.287 56.7 103.586 56.7 103.586" stroke="white" stroke-width="2" stroke-miterlimit="10" stroke-linecap="round"/>
<path d="M67.2945 100.089C67.2945 100.089 76.9332 96.9833 81.1179 105.124C81.6377 106.142 81.8424 107.511 81.7935 109.104C81.3734 120.221 68.2426 142.545 64.8513 138.205C60.9677 133.249 54.7386 115.934 64.4027 112.431C74.0669 108.928 83.5161 116.661 85.7965 122.153C88.077 127.646 92.8644 126.383 101.117 103.826C109.369 81.2957 122.541 47.5376 122.541 47.5376C122.541 47.5376 103.071 122.303 106.953 127.286C110.836 132.243 127.903 86.6859 136.027 57.8438C144.177 29.0034 128.873 103.903 129.627 116.611C130.382 129.32 138.027 124.544 149.676 114.545C161.325 104.547 161.325 104.547 161.325 104.547" stroke="white" stroke-width="2" stroke-miterlimit="10" stroke-linecap="round"/>
<path d="M179.955 51.2176C179.955 51.2176 171.136 156.029 181.006 149.321C190.875 142.613 199.221 61.3624 203.271 63.7232C207.321 66.0839 202.105 147.455 208.353 147.882C214.601 148.309 241.156 53.0393 241.156 53.0393L241.793 108.641C241.793 108.641 246.289 79.5662 253.531 81.0942C260.773 82.5957 256.148 97.5126 259.172 99.2757C262.197 101.039 275.162 78.8104 278.221 80.0437C281.279 81.277 279.187 81.1429 281.279 81.277C283.371 81.4111 292.717 66.2914 293.609 68.9551C294.474 71.6436 287.306 101.744 297.443 99.1754C307.579 96.6069 319.821 76.9387 320.256 70.1578C320.691 63.3768 314.363 88.6638 316.194 92.4515C318.052 96.2409 336.536 69.6321 337.34 64.976C338.17 60.3216 345.882 62.3851 350.63 62.1575C355.351 61.9282 350.252 92.5334 351.411 91.0385C352.571 89.5436 351.819 76.3832 360.026 71.1377C368.233 65.8923 368.233 65.8923 368.233 65.8923" stroke="white" stroke-width="2" stroke-miterlimit="10" stroke-linecap="round" stroke-linejoin="round"/>
<path d="M303.036 77.4586L326.859 73.7461" stroke="white" stroke-width="2" stroke-miterlimit="10" stroke-linecap="round" stroke-linejoin="round"/>
<path d="M393.532 61.5562C393.532 61.5562 393.168 44.8301 406.785 44.7986C413.407 44.771 419.51 48.3005 421.154 55.0019C422.902 62.1621 419.391 68.4001 415.033 73.7593C410.011 79.927 405.141 86.2108 400.423 92.6108C400.161 92.9663 399.227 94.2629 399.757 94.6959C400.136 95.0127 401.748 93.9192 402.132 93.7311C403.895 92.7802 405.536 91.6619 407.348 90.7674C410.038 89.4504 412.771 88.2957 415.577 87.2521C421.079 85.2111 426.812 83.7168 432.614 82.812" stroke="white" stroke-width="2" stroke-miterlimit="10" stroke-linecap="round" stroke-linejoin="round"/>
<path d="M451.447 42.8742C449.915 43.1218 448.469 43.694 447.287 44.7087C445.433 46.2654 444.484 48.6249 443.881 50.98C442.715 55.4799 442.669 60.3442 442.347 64.9514C441.98 69.8483 441.796 74.7835 442.469 79.6406C442.762 81.7074 443.21 83.8373 444.487 85.4883C445.837 87.2504 447.949 88.3167 450.126 88.7754C455.898 89.9965 462.584 88.5633 464.885 82.5403C465.809 80.1526 466.002 77.5585 466.193 74.9908C466.604 69.4053 467.016 63.8197 467.425 58.2606C467.649 55.1897 467.857 51.9317 466.466 49.1563C465.336 46.8763 463.21 45.1974 460.853 44.2218C458.005 43.0286 454.538 42.3542 451.447 42.8742Z" stroke="white" stroke-width="2" stroke-miterlimit="10" stroke-linecap="round" stroke-linejoin="round"/>
<path d="M447.045 45.8335L463.985 82.5122" stroke="white" stroke-width="2" stroke-linecap="round"/>
<path d="M480.986 44.5811C480.986 44.5811 484.507 28.237 497.762 31.3473C504.234 32.8526 509.321 37.7002 509.384 44.5928C509.443 51.9639 504.559 57.2361 499.078 61.4329C492.758 66.2674 486.561 71.2693 480.49 76.3857C480.153 76.6567 478.942 77.7227 479.358 78.2813C479.652 78.6725 481.477 77.9916 481.883 77.8846C483.804 77.3694 485.685 76.6389 487.628 76.2049C490.54 75.5671 493.497 75.0651 496.446 74.6956C502.287 74.0061 508.173 73.8514 514.047 74.3077" stroke="white" stroke-width="2" stroke-miterlimit="10" stroke-linecap="round" stroke-linejoin="round"/>
<path d="M533.424 33.7663C531.893 34.0139 530.447 34.5861 529.265 35.6008C527.41 37.1575 526.461 39.517 525.858 41.8721C524.692 46.372 524.646 51.2363 524.324 55.8435C523.957 60.7403 523.774 65.6756 524.446 70.5327C524.739 72.5995 525.188 74.7293 526.465 76.3804C527.814 78.1425 529.926 79.2088 532.104 79.6675C537.876 80.8886 544.562 79.4554 546.863 73.4324C547.787 71.0447 547.98 68.4506 548.171 65.8829C548.582 60.2974 548.993 54.7118 549.403 49.1527C549.626 46.0818 549.835 42.8238 548.444 40.0484C547.314 37.7684 545.188 36.0895 542.831 35.1139C539.956 33.919 536.489 33.2446 533.424 33.7663Z" stroke="white" stroke-width="2" stroke-miterlimit="10" stroke-linecap="round" stroke-linejoin="round"/>
<path d="M529.272 36.2737L546.212 72.9524" stroke="white" stroke-width="2" stroke-linecap="round"/>
</svg>
