<svg width="1133" height="365" viewBox="0 0 1133 365" fill="none" xmlns="http://www.w3.org/2000/svg">
<path d="M938.008 364.501V0H1028.21V300.601H1132.08V364.501H938.008Z" fill="white"/>
<rect y="175.499" width="1132.08" height="27.0001" fill="white"/>
<path d="M172.227 364.27C141.144 364.27 115.449 356.961 95.1412 342.341C75.248 327.315 59.7065 304.371 48.5166 273.507L114.413 246.705C120.629 263.761 128.089 277.162 136.793 286.908C145.496 296.249 155.65 300.919 167.254 300.919C175.957 300.919 182.381 299.091 186.525 295.437C191.084 291.376 193.364 285.893 193.364 278.99C193.364 269.243 190.048 260.512 183.417 252.796C176.786 245.08 164.974 234.319 147.982 220.511L114.413 192.491C97.0062 177.871 82.9152 163.455 72.1397 149.241C61.7787 134.622 56.5982 116.55 56.5982 95.027C56.5982 75.9404 61.3643 59.2903 70.8964 45.0769C80.843 30.8635 93.8979 19.8988 110.061 12.1829C126.639 4.06098 144.46 0 163.524 0C192.949 0 216.987 8.32501 235.637 24.975C254.701 41.219 267.549 63.3513 274.18 91.3721L213.257 118.175C210.77 109.24 207.455 100.915 203.31 93.1996C199.166 85.0776 193.778 78.377 187.147 73.0977C180.93 67.8184 173.885 65.1788 166.011 65.1788C158.551 65.1788 152.541 67.4123 147.982 71.8794C143.424 76.3465 141.144 82.0319 141.144 88.9355C141.144 96.2453 144.874 103.961 152.334 112.083C160.208 120.205 170.984 129.951 184.66 141.322L218.23 170.561C228.177 179.089 237.916 188.227 247.448 197.973C256.98 207.313 264.855 217.872 271.071 229.649C277.288 241.019 280.396 254.218 280.396 269.243C280.396 289.548 275.423 306.807 265.476 321.021C255.53 335.234 242.268 345.996 225.69 353.306C209.527 360.615 191.706 364.27 172.227 364.27Z" fill="white"/>
<path d="M438.352 364.27C412.656 364.27 390.691 359.803 372.456 350.869C354.22 341.529 340.336 328.127 330.804 310.665C321.687 293.203 317.128 271.477 317.128 245.486V118.784C317.128 92.7935 321.687 71.0672 330.804 53.605C340.336 36.1427 354.22 22.9445 372.456 14.0104C390.691 4.67013 412.656 0 438.352 0C464.047 0 486.012 4.67013 504.248 14.0104C522.483 22.9445 536.367 36.1427 545.899 53.605C555.431 71.0672 560.197 92.7935 560.197 118.784V245.486C560.197 271.477 555.431 293.203 545.899 310.665C536.367 328.127 522.483 341.529 504.248 350.869C486.012 359.803 464.047 364.27 438.352 364.27ZM438.973 302.137C446.848 302.137 452.857 300.107 457.001 296.046C461.146 291.579 463.84 285.69 465.083 278.38C466.326 270.665 466.948 261.933 466.948 252.187V112.692C466.948 102.54 466.326 93.8087 465.083 86.499C463.84 79.1892 461.146 73.3007 457.001 68.8337C452.857 64.3666 446.848 62.133 438.973 62.133C431.099 62.133 425.09 64.3666 420.945 68.8337C416.801 73.3007 413.9 79.1892 412.242 86.499C410.999 93.8087 410.377 102.54 410.377 112.692V252.187C410.377 261.933 410.999 270.665 412.242 278.38C413.9 285.69 416.801 291.579 420.945 296.046C425.09 300.107 431.099 302.137 438.973 302.137Z" fill="white"/>
<path d="M678.128 364.27C663.623 364.27 651.397 360.615 641.45 353.306C631.918 345.996 624.873 336.249 620.314 324.066C615.755 311.884 613.476 298.482 613.476 283.863V6.09146H707.346V270.462C707.346 280.208 709.004 287.721 712.32 293C715.635 297.873 721.645 300.31 730.348 300.31C735.321 300.31 740.502 299.091 745.889 296.655C751.692 293.812 757.494 290.563 763.296 286.908V6.09146H857.167V358.179H763.296V325.285C750.863 337.062 737.393 346.605 722.888 353.915C708.797 360.818 693.877 364.27 678.128 364.27Z" fill="white"/>
</svg>
